<svg xmlns="http://www.w3.org/2000/svg" viewBox="0 0 1101 490"><defs><style>.cls-1{fill:#28529e;}</style></defs><title>Artboard 1</title><g id="Layer_1" data-name="Layer 1"><path d="M141.11,134.05q25.21,0,35.83,11.06,8,8.41,8,21.23,0,4.44-4,26.55-2.66,14.38-9.18,23.23t-14.49,12.6l20.13,64.59H132.7l-18.58-59.5H100.41l-9.07,59.5H48.87L77,134.05Zm-13.94,34.51H110.58l-5.75,38.49h15.49q11.72,0,16.81-5.64t5.09-14.94Q142.22,168.56,127.17,168.56Z"/><path d="M290,132.5q53.31,0,53.31,43.58a87.16,87.16,0,0,1-1.55,15.7L334,236q-5.31,30.75-23,45.57t-49.77,14.82q-32.07,0-44.46-14.82-8.85-10.17-8.85-28.09A96.2,96.2,0,0,1,209.68,236l7.74-44.24Q227.82,132.5,290,132.5ZM267.19,262.13q11.07,0,17.7-5.76t9.29-21.23l7.52-42.47a54.59,54.59,0,0,0,.67-8q0-17.91-18.14-17.91-22.78.44-27.21,25.88l-7.52,42.47a72.72,72.72,0,0,0-.89,11.5Q248.61,262.12,267.19,262.13Z"/><path d="M438.18,134.05q25.21,0,35.84,11.06,8,8.41,8,21.23,0,4.65-2.66,18.59t-9.62,21q-7,7.08-12.27,7.08l-.23,1.77q6.19,0,12.61,6.86a22.84,22.84,0,0,1,6.42,16.14q0,3.77-2.21,14.82-3.54,19-16.93,29.87t-37.27,10.83H345.94L374,134.05Zm-19.91,94.23h-21L392,258.81h21.9q10.17,0,16.15-4.76t6-11.61Q436,228.28,418.27,228.28Zm6-59.72H407.66l-5.76,33h16.37q21.24,0,21.24-18.59a14.27,14.27,0,0,0-3.87-10.39Q431.77,168.55,424.25,168.56Z"/><path d="M579.53,132.5q53.29,0,53.31,43.58a87.16,87.16,0,0,1-1.55,15.7L623.54,236q-5.29,30.75-23,45.57t-49.77,14.82q-32.07,0-44.46-14.82-8.85-10.17-8.85-28.09A96.2,96.2,0,0,1,499.23,236L507,191.78Q517.37,132.5,579.53,132.5ZM556.74,262.13q11.07,0,17.7-5.76t9.29-21.23l7.52-42.47a54.47,54.47,0,0,0,.66-8q0-17.91-18.13-17.91-22.8.44-27.21,25.88l-7.52,42.47a72.72,72.72,0,0,0-.89,11.5Q538.16,262.12,556.74,262.13Z"/><path d="M695.65,296.41q-31.64,0-43.79-13.71-8.42-9.74-8.41-27.21A92,92,0,0,1,645,239.34l9.07-50.88q10-56,71.89-56,25.65,0,38.93,10.95t13.27,30A62.88,62.88,0,0,1,775.62,191a82.26,82.26,0,0,1-7.41,17.36H729.06q7.29-8.4,7.3-23.89,0-8.17-4.21-12.94t-12.38-4.75q-22.35,0-26.55,24.77l-7.74,44.68a59.56,59.56,0,0,0-1.11,11.29q0,14.6,17.48,14.6,21,0,25.22-23.67h39.81l-1.1,6.41Q756.93,296.41,695.65,296.41Z"/><path d="M870.18,132.5q53.31,0,53.31,43.58a87.16,87.16,0,0,1-1.55,15.7L914.2,236q-5.31,30.75-23,45.57t-49.78,14.82q-32.07,0-44.46-14.82-8.85-10.17-8.84-28.09A96.13,96.13,0,0,1,789.88,236l7.75-44.24Q808,132.5,870.18,132.5ZM847.4,262.13q11.05,0,17.69-5.76t9.29-21.23l7.52-42.47a53.23,53.23,0,0,0,.67-8q0-17.91-18.14-17.91-22.78.44-27.21,25.88l-7.52,42.47a72.74,72.74,0,0,0-.88,11.5Q828.82,262.12,847.4,262.13Z"/><path d="M1077,134.05l-27.87,159.26h-40l-27.87-87.15-15,87.15h-40l28.09-159.26h41.15l27.43,81.4,14.38-81.4Z"/><path d="M97.27,25.62h10.38l-2.88,17.76h14.82l2.88-17.76h10.38l-7.08,44.52H115.39l2.76-17.46H103.33l-2.76,17.46H90.19Z"/><path d="M136.69,37.86h10.38L142,70.14H131.59Zm1-4.74a1.09,1.09,0,0,1-.18-1l1-6.3a1.41,1.41,0,0,1,1.56-1.38h8a1,1,0,0,1,.87.39,1.25,1.25,0,0,1,.15,1l-1,6.3q-.3,1.32-1.44,1.32h-8.1A1.1,1.1,0,0,1,137.71,33.12Z"/><path d="M152,68.1a6.52,6.52,0,0,1-2.67-5.46,27.44,27.44,0,0,1,.18-3.78L155,24.36h10.32l-4.86,30.9q-.48,3.36-.48,4.2a2.58,2.58,0,0,0,.69,2.07,4.24,4.24,0,0,0,2.19.75l2,.36-1.14,7.5h-4Q154.63,70.14,152,68.1Z"/><path d="M171.94,68.1a6.52,6.52,0,0,1-2.67-5.46,27.44,27.44,0,0,1,.18-3.78L175,24.36h10.32l-4.86,30.9q-.48,3.36-.48,4.2a2.58,2.58,0,0,0,.69,2.07,4.24,4.24,0,0,0,2.19.75l2,.36-1.14,7.5h-4Q174.61,70.14,171.94,68.1Z"/><path d="M187.69,68.82l1-6.06h14.28q2.4,0,2.7-1.68l.18-1,.06-.6q0-1.38-2-1.38h-4.44a12.23,12.23,0,0,1-6.81-1.71A5.72,5.72,0,0,1,190,51.3a17.12,17.12,0,0,1,.18-2.82l.36-2.22a9.69,9.69,0,0,1,3.9-6.45q3.18-2.31,10-2.31A48.65,48.65,0,0,1,211,38a33,33,0,0,1,5.85,1.26l-1,6.06H202.45a3.46,3.46,0,0,0-1.89.39,2.2,2.2,0,0,0-.81,1.35l-.12.54-.12,1a1.15,1.15,0,0,0,.45,1,3,3,0,0,0,1.65.33h5.1a10.47,10.47,0,0,1,6.36,1.77,5.57,5.57,0,0,1,2.4,4.71,25.25,25.25,0,0,1-.18,2.88l-.42,2.82a8.4,8.4,0,0,1-4.35,6.42q-3.63,2-9.93,2A41.53,41.53,0,0,1,187.69,68.82Z"/><path d="M241,25.62h17.22q6.12,0,9.33,2.73T270.79,37a23.94,23.94,0,0,1-.36,3.9q-.78,5.34-3.09,7.8a17.16,17.16,0,0,1-5.25,3.84l5.16,17.58H256.69l-4.08-15.9h-5.76l-2.52,15.9H234ZM254.23,46a5.52,5.52,0,0,0,4.08-1.29,8.14,8.14,0,0,0,1.74-4.47,10.57,10.57,0,0,0,.12-1.8q0-3.54-4-3.54h-6.3L248.17,46Z"/><path d="M275.71,67.62q-3.24-2.88-3.24-8.46A39.06,39.06,0,0,1,273,53q1-6.42,3.09-9.72a10.62,10.62,0,0,1,5.49-4.53,27.63,27.63,0,0,1,9.12-1.23,20.1,20.1,0,0,1,8,1.26,7.11,7.11,0,0,1,3.84,3.78,18.18,18.18,0,0,1,1.05,6.84,43.59,43.59,0,0,1-.54,6.54,22.5,22.5,0,0,1-3,9,11,11,0,0,1-5.55,4.38,27.22,27.22,0,0,1-9,1.23Q279,70.5,275.71,67.62Zm14-6a4.34,4.34,0,0,0,1.77-2.28,25.07,25.07,0,0,0,1.2-4.89,36,36,0,0,0,.54-5.46,3.23,3.23,0,0,0-.9-2.64,5,5,0,0,0-3.06-.72,5.78,5.78,0,0,0-3.15.72,4.88,4.88,0,0,0-1.77,2.55,30.46,30.46,0,0,0-1.2,5.55,24.29,24.29,0,0,0-.42,4.26,3.52,3.52,0,0,0,.9,2.76,4.46,4.46,0,0,0,2.94.78A6.45,6.45,0,0,0,289.72,61.59Z"/><path d="M309.31,67.68q-2.4-2.82-2.4-8.4a29.37,29.37,0,0,1,.33-4.32q.33-2.22.39-2.52,1.2-7.56,5.34-11.25t11.88-3.69a29.46,29.46,0,0,1,8.07,1.08,17.46,17.46,0,0,1,6,2.82l-4.56,28.74h-9.24l-.6-3.18a14.31,14.31,0,0,1-4,2.43,12.83,12.83,0,0,1-5.1,1.11A7.68,7.68,0,0,1,309.31,67.68Zm14-6a15.67,15.67,0,0,0,2.28-1.41l2.16-13.8a8.53,8.53,0,0,0-3.36-.66A5.45,5.45,0,0,0,320,47.67a11.25,11.25,0,0,0-2.19,5.43,26.9,26.9,0,0,0-.48,4.32,6.62,6.62,0,0,0,.81,3.45,2.76,2.76,0,0,0,2.55,1.35A5.83,5.83,0,0,0,323.29,61.65Z"/><path d="M343.72,67.53q-2.25-3-2.25-8.37a35.47,35.47,0,0,1,.72-7,28.47,28.47,0,0,1,2.67-8.13,11.72,11.72,0,0,1,4.95-4.86,18.42,18.42,0,0,1,8.58-1.71,24.25,24.25,0,0,1,5.28.48l2.1-13.62h10.38l-7.26,45.78h-9.24l-.6-3.18A16,16,0,0,1,355,69.51a11.29,11.29,0,0,1-4.59,1A7.87,7.87,0,0,1,343.72,67.53Zm14-5.85a11.56,11.56,0,0,0,2.31-1.44l2.22-13.8a7.5,7.5,0,0,0-3.36-.66,5.83,5.83,0,0,0-4.26,1.65q-1.68,1.65-2.52,6.51a18.65,18.65,0,0,0-.36,3.54q0,4.74,3.3,4.74A6.3,6.3,0,0,0,357.76,61.68Z"/><path d="M390.31,68.88l1.26-8.22q5.46.54,13.44.54a13.27,13.27,0,0,0,5.25-.75,3.43,3.43,0,0,0,1.89-2.85l.18-1.08a6.1,6.1,0,0,0,.06-1,2.09,2.09,0,0,0-1.05-2,7.85,7.85,0,0,0-3.51-.57h-2.94q-5.16,0-8.13-2.76a9.45,9.45,0,0,1-3-7.26,18.67,18.67,0,0,1,.18-2.52l.54-3.48q1-6.24,5.16-9T411,25.26a55,55,0,0,1,13.74,1.68l-1.26,8.16q-5.76-.48-13.8-.48a7.68,7.68,0,0,0-3.81.78,3.58,3.58,0,0,0-1.65,2.76l-.18,1.08a9.87,9.87,0,0,0-.12,1.14,2.6,2.6,0,0,0,.84,2.13,4.13,4.13,0,0,0,2.64.69h3.18q5.7,0,8.82,2.7A9,9,0,0,1,422.53,53a16.62,16.62,0,0,1-.18,2.34l-.66,4.2a14,14,0,0,1-2.34,6.15,10.47,10.47,0,0,1-5.16,3.57,27.57,27.57,0,0,1-8.94,1.2A61,61,0,0,1,390.31,68.88Z"/><path d="M429.25,37.86h10.38l-5.1,32.28H424.15Zm1-4.74a1.09,1.09,0,0,1-.18-1l1-6.3a1.41,1.41,0,0,1,1.56-1.38h8a1,1,0,0,1,.87.39,1.25,1.25,0,0,1,.15,1l-1,6.3q-.3,1.32-1.44,1.32h-8.1A1.1,1.1,0,0,1,430.27,33.12Z"/><path d="M462.43,54.84l8.88,15.3H460.69l-5.22-9-7.5,9H437.35l13.74-16.5-9.18-15.78h10.56L458,47.22l6.72-9.36h11.1Z"/><path d="M480.7,68.31a6.51,6.51,0,0,1-2.55-5.67,32.92,32.92,0,0,1,.54-5.7l2-10.86h-5l1.08-6.6,5.58-1.62,2.76-9.06h8.22L492,37.86h7l-1.26,8.22h-7L489,56.94a18.28,18.28,0,0,0-.36,2.76,2.17,2.17,0,0,0,.63,1.74,3.55,3.55,0,0,0,2,.66l3.6.36-1.2,7.68h-5.22Q483.25,70.14,480.7,68.31Z"/><path d="M506.53,24.36h10.32L514.21,41a17.59,17.59,0,0,1,10.68-3.54q4,0,6,1.92t2,6.18a23.94,23.94,0,0,1-.36,3.9l-3.24,20.64H518.89L522,50.7a7.69,7.69,0,0,0,.06-1.14q0-2.76-3-2.76A8.89,8.89,0,0,0,513,49.2l-3.36,20.94H499.27Z"/><path d="M555.85,36.12q.9-5.82,4.29-8.16a13.75,13.75,0,0,1,8-2.34q9.48.06,18.24.9L585,35.28H569.83a3.94,3.94,0,0,0-2.88.9,4.92,4.92,0,0,0-1.2,2.76l-.9,5.88,15.72.48-1.38,8.22-15.78.54-2.58,16.08H550.45Z"/><path d="M587.11,67.62q-3.24-2.88-3.24-8.46a39.06,39.06,0,0,1,.48-6.18q1-6.42,3.09-9.72a10.62,10.62,0,0,1,5.49-4.53,27.63,27.63,0,0,1,9.12-1.23,20.1,20.1,0,0,1,8,1.26,7.11,7.11,0,0,1,3.84,3.78A18.18,18.18,0,0,1,615,49.38a43.59,43.59,0,0,1-.54,6.54,22.5,22.5,0,0,1-3,9,11,11,0,0,1-5.55,4.38,27.26,27.26,0,0,1-9,1.23Q590.35,70.5,587.11,67.62Zm14-6a4.34,4.34,0,0,0,1.77-2.28,25.07,25.07,0,0,0,1.2-4.89,36,36,0,0,0,.54-5.46,3.23,3.23,0,0,0-.9-2.64,5,5,0,0,0-3.06-.72,5.78,5.78,0,0,0-3.15.72,4.88,4.88,0,0,0-1.77,2.55,29.63,29.63,0,0,0-1.2,5.55,24.29,24.29,0,0,0-.42,4.26,3.52,3.52,0,0,0,.9,2.76,4.46,4.46,0,0,0,2.94.78A6.48,6.48,0,0,0,601.12,61.59Z"/><path d="M622.27,37.86h9.3l.42,4.26a17.7,17.7,0,0,1,3.93-3.39,8.5,8.5,0,0,1,4.53-1.23,12.68,12.68,0,0,1,3,.3l-1.56,10.38c-.77,0-2-.06-3.6-.06a13.47,13.47,0,0,0-4.35.66,10.91,10.91,0,0,0-3.27,1.68l-3.13,19.68H617.17Z"/><path d="M647.88,37.86h8.65L657.79,41a18.88,18.88,0,0,1,4.83-2.61,17.17,17.17,0,0,1,5.91-.93,8.94,8.94,0,0,1,4.59,1.08,8.4,8.4,0,0,1,3.09,3.6,15.65,15.65,0,0,1,5.46-3.54,16.3,16.3,0,0,1,5.82-1.14q4.54,0,6.56,2a7.67,7.67,0,0,1,2,5.67,31.13,31.13,0,0,1-.48,5.28l-3.13,19.68H682.09l3.12-19.44a7.2,7.2,0,0,0,.06-1c0-1.92-1.11-2.88-3.31-2.88a8.85,8.85,0,0,0-5.87,2.46l-.18,1.62-3.06,19.26H662.46l3.07-19.32c0-.32.06-.72.06-1.2a2.63,2.63,0,0,0-.81-2.16,3.79,3.79,0,0,0-2.43-.66,7.45,7.45,0,0,0-3.13.63,11.14,11.14,0,0,0-2.69,1.77l-3.36,20.94H642.85Z"/><path d="M719.4,66.45Q715.62,62.4,715.62,55a54.71,54.71,0,0,1,.72-8.64q1.68-10.8,6.12-16t13-5.16A35.68,35.68,0,0,1,750.06,28l-1.38,8.22a41.8,41.8,0,0,0-11.4-1.68,11.31,11.31,0,0,0-5,1,7.84,7.84,0,0,0-3.3,3.87,34.7,34.7,0,0,0-2.34,8.79,51.82,51.82,0,0,0-.72,7q0,3.24,1.71,4.65t5.91,1.41q3.48,0,5.79-.15t5.55-.51l-1.26,8.1q-4.86,1.86-12.84,1.86Q723.18,70.5,719.4,66.45Z"/><path d="M752.64,67.62q-3.24-2.88-3.24-8.46a39.06,39.06,0,0,1,.48-6.18q1-6.42,3.09-9.72a10.62,10.62,0,0,1,5.49-4.53,27.63,27.63,0,0,1,9.12-1.23,20.1,20.1,0,0,1,8,1.26,7.11,7.11,0,0,1,3.84,3.78,18.18,18.18,0,0,1,1.05,6.84,43.59,43.59,0,0,1-.54,6.54,22.5,22.5,0,0,1-3,9,11,11,0,0,1-5.55,4.38,27.22,27.22,0,0,1-9,1.23Q755.88,70.5,752.64,67.62Zm14-6a4.34,4.34,0,0,0,1.77-2.28,25.07,25.07,0,0,0,1.2-4.89,36,36,0,0,0,.54-5.46,3.23,3.23,0,0,0-.9-2.64,5,5,0,0,0-3.06-.72,5.78,5.78,0,0,0-3.15.72,4.88,4.88,0,0,0-1.77,2.55,30.46,30.46,0,0,0-1.2,5.55,24.29,24.29,0,0,0-.42,4.26,3.52,3.52,0,0,0,.9,2.76,4.46,4.46,0,0,0,2.94.78A6.45,6.45,0,0,0,766.65,61.59Z"/><path d="M786.93,68.1a6.52,6.52,0,0,1-2.67-5.46,27.44,27.44,0,0,1,.18-3.78L790,24.36h10.32l-4.86,30.9q-.48,3.36-.48,4.2a2.58,2.58,0,0,0,.69,2.07,4.24,4.24,0,0,0,2.19.75l2,.36-1.14,7.5h-4Q789.6,70.14,786.93,68.1Z"/><path d="M806.91,68.1a6.52,6.52,0,0,1-2.67-5.46,27.44,27.44,0,0,1,.18-3.78l5.52-34.5h10.32l-4.86,30.9q-.48,3.36-.48,4.2a2.58,2.58,0,0,0,.69,2.07,4.24,4.24,0,0,0,2.19.75l2,.36-1.14,7.5h-4Q809.58,70.14,806.91,68.1Z"/><path d="M827,67.38q-3-3.12-3-9.18a39.32,39.32,0,0,1,.6-5.94q1.2-7.8,5.46-11.31t11.58-3.51a17,17,0,0,1,9,2.19q3.57,2.19,3.57,7.71,0,6.36-3.6,8.7t-10,2.34a30.23,30.23,0,0,1-6.3-.54,16.25,16.25,0,0,0-.12,1.68,2.74,2.74,0,0,0,1.59,2.58,11.43,11.43,0,0,0,5.07.84H851.4l-1,6.06a61.82,61.82,0,0,1-13.74,1.5Q829.92,70.5,827,67.38Zm16.17-15.66a3.7,3.7,0,0,0,1.44-3.24q0-3.12-3.66-3.12a4.76,4.76,0,0,0-4,1.74,11.75,11.75,0,0,0-2,5.34q2.4.3,3.12.3Q841.68,52.74,843.12,51.72Z"/><path d="M854.46,83.46l1.08-7.14h10.32a12.28,12.28,0,0,0,5.43-1,4.43,4.43,0,0,0,2.31-3.48l.78-4.92a13.63,13.63,0,0,1-4.23,2.46,13.86,13.86,0,0,1-5.07,1.08,6.9,6.9,0,0,1-6.21-3.21,14.5,14.5,0,0,1-2.07-8,58,58,0,0,1,.78-7.62q1.26-7.8,5.76-11a19,19,0,0,1,11.22-3.18,48.91,48.91,0,0,1,8,.63,38.39,38.39,0,0,1,6.48,1.59l-5.4,33.78q-.9,5.64-4.89,8.25t-11.61,2.61q-2.64,0-5-.24ZM875.4,60.24l2.22-14a19,19,0,0,0-3.66-.42,5.39,5.39,0,0,0-4,1.68,10.06,10.06,0,0,0-2.31,5.34l-.18,1.32a22.9,22.9,0,0,0-.36,3.36A6,6,0,0,0,868,61a2.89,2.89,0,0,0,2.49,1.2A8,8,0,0,0,875.4,60.24Z"/><path d="M894.57,67.38q-3-3.12-3-9.18a39.32,39.32,0,0,1,.6-5.94q1.2-7.8,5.46-11.31t11.58-3.51a17,17,0,0,1,9,2.19q3.57,2.19,3.57,7.71,0,6.36-3.6,8.7t-10,2.34a30.23,30.23,0,0,1-6.3-.54,16.25,16.25,0,0,0-.12,1.68,2.74,2.74,0,0,0,1.59,2.58,11.43,11.43,0,0,0,5.07.84H919l-1,6.06a61.82,61.82,0,0,1-13.74,1.5Q897.54,70.5,894.57,67.38Zm16.17-15.66a3.7,3.7,0,0,0,1.44-3.24q0-3.12-3.66-3.12a4.76,4.76,0,0,0-4,1.74,11.75,11.75,0,0,0-2,5.34q2.4.3,3.12.3Q909.3,52.74,910.74,51.72Z"/><path class="cls-1" d="M147.11,124.05q25.21,0,35.83,11.06,8,8.41,8,21.23,0,4.44-4,26.55-2.66,14.38-9.18,23.23t-14.49,12.6l20.13,64.59H138.7l-18.58-59.5H106.41l-9.07,59.5H54.87L83,124.05Zm-13.94,34.51H116.58l-5.75,38.49h15.49q11.72,0,16.81-5.64t5.09-14.94Q148.22,158.56,133.17,158.56Z"/><path class="cls-1" d="M296,122.5q53.31,0,53.31,43.58a87.16,87.16,0,0,1-1.55,15.7L340,226q-5.31,30.75-23,45.57t-49.77,14.82q-32.07,0-44.46-14.82-8.85-10.17-8.85-28.09A96.2,96.2,0,0,1,215.68,226l7.74-44.24Q233.82,122.5,296,122.5ZM273.19,252.13q11.07,0,17.7-5.76t9.29-21.23l7.52-42.47a54.59,54.59,0,0,0,.67-8q0-17.91-18.14-17.91-22.78.44-27.21,25.88l-7.52,42.47a72.72,72.72,0,0,0-.89,11.5Q254.61,252.12,273.19,252.13Z"/><path class="cls-1" d="M444.18,124.05q25.21,0,35.84,11.06,8,8.41,8,21.23,0,4.65-2.66,18.59t-9.62,21q-7,7.08-12.27,7.08l-.23,1.77q6.19,0,12.61,6.86a22.84,22.84,0,0,1,6.42,16.14q0,3.77-2.21,14.82-3.54,19-16.93,29.87t-37.27,10.83H351.94L380,124.05Zm-19.91,94.23h-21L398,248.81h21.9q10.17,0,16.15-4.76t6-11.61Q442,218.28,424.27,218.28Zm6-59.72H413.66l-5.76,33h16.37q21.24,0,21.24-18.59a14.27,14.27,0,0,0-3.87-10.39Q437.77,158.55,430.25,158.56Z"/><path class="cls-1" d="M585.53,122.5q53.29,0,53.31,43.58a87.16,87.16,0,0,1-1.55,15.7L629.54,226q-5.29,30.75-23,45.57t-49.77,14.82q-32.07,0-44.46-14.82-8.85-10.17-8.85-28.09A96.2,96.2,0,0,1,505.23,226L513,181.78Q523.37,122.5,585.53,122.5ZM562.74,252.13q11.07,0,17.7-5.76t9.29-21.23l7.52-42.47a54.47,54.47,0,0,0,.66-8q0-17.91-18.13-17.91-22.8.44-27.21,25.88l-7.52,42.47a72.72,72.72,0,0,0-.89,11.5Q544.16,252.12,562.74,252.13Z"/><path class="cls-1" d="M701.65,286.41q-31.64,0-43.79-13.71-8.42-9.74-8.41-27.21A92,92,0,0,1,651,229.34l9.07-50.88q10-56,71.89-56,25.65,0,38.93,10.95t13.27,30A62.88,62.88,0,0,1,781.62,181a82.26,82.26,0,0,1-7.41,17.36H735.06q7.29-8.4,7.3-23.89,0-8.17-4.21-12.94t-12.38-4.75q-22.35,0-26.55,24.77l-7.74,44.68a59.56,59.56,0,0,0-1.11,11.29q0,14.6,17.48,14.6,21,0,25.22-23.67h39.81l-1.1,6.41Q762.93,286.41,701.65,286.41Z"/><path class="cls-1" d="M876.18,122.5q53.31,0,53.31,43.58a87.16,87.16,0,0,1-1.55,15.7L920.2,226q-5.31,30.75-23,45.57t-49.78,14.82q-32.07,0-44.46-14.82-8.85-10.17-8.84-28.09A96.13,96.13,0,0,1,795.88,226l7.75-44.24Q814,122.5,876.18,122.5ZM853.4,252.13q11.05,0,17.69-5.76t9.29-21.23l7.52-42.47a53.23,53.23,0,0,0,.67-8q0-17.91-18.14-17.91-22.78.44-27.21,25.88l-7.52,42.47a72.74,72.74,0,0,0-.88,11.5Q834.82,252.12,853.4,252.13Z"/><path class="cls-1" d="M1083,124.05l-27.87,159.26h-40l-27.87-87.15-15,87.15h-40l28.09-159.26h41.15l27.43,81.4,14.38-81.4Z"/><line x1="93" y1="18" x2="9" y2="482"/></g><g id="Layer_2" data-name="Layer 2"><path d="M22.5,452.07l44-38.4a53.21,53.21,0,0,0,11-12.64q3.67-6.24,3.68-11.52,0-4.49-2.48-6.64c-1.66-1.44-4.24-2.16-7.76-2.16H36.1l3.68-21.92a27.48,27.48,0,0,0,3.36-.64q10.56-1.92,17.6-2.8a127.92,127.92,0,0,1,15.84-.88q17,0,24.64,7.2t7.68,19.68a56.67,56.67,0,0,1-5,23.6q-5,11-16.32,20.88L61.06,449.35h43.52l-4,24.8H19.14Z"/><path d="M124.34,468.79q-7-6.17-7-17.84a43.45,43.45,0,0,1,.64-7.52l9-56q2.55-15.84,12.24-24.4t25-8.56h25.28q12.79,0,19.44,6.4t6.64,18.4a50.38,50.38,0,0,1-.64,8.16l-9,56q-2.4,14.88-11.76,23.2T170.34,475H144.9Q131.3,475,124.34,468.79Zm42.32-18.64q5.43,0,8.48-2.64t4-8.24l7.68-49,.32-3.2c0-2.77-.7-4.77-2.08-6s-3.42-1.84-6.08-1.84H165.86q-9.93,0-11.68,11l-7.84,48.8c-.22,1.71-.32,2.77-.32,3.2q0,4.15,2.4,6t7.2,1.84Z"/><path d="M247.61,380.39,227.46,383l2.71-17.6,24.48-9.92h24.64L260.42,474.15H232.73Z"/><path d="M356.89,357.67q6.41,3,9.76,10.56T370,389q0,40.32-13.84,63.2t-44.08,22.88q-17.91,0-29.92-3l3.36-21.76h27.52q11,0,17-6.24t8.08-18.56a50.84,50.84,0,0,1-10.8,2.4,132.75,132.75,0,0,1-14.48.64q-14.55,0-20.88-5.36t-6.32-15.28a44.44,44.44,0,0,1,.8-7.52l2.72-17.12q2.25-14.72,11.28-21.68t23.12-7h16.8Q350.49,354.63,356.89,357.67Zm-30.72,21.76q-4.64,0-7.12,2.32c-1.65,1.55-2.74,4-3.28,7.28L315,395c-.21,1.92-.32,3.15-.32,3.68q0,3.67,2.24,5t7.68,1.36h16.8q1.29-9.91,1.28-12.32,0-7.51-2.8-10.4c-1.86-1.92-4.88-2.88-9-2.88Z"/></g></svg>