<svg xmlns="http://www.w3.org/2000/svg" xmlns:xlink="http://www.w3.org/1999/xlink" viewBox="0 0 180 180"><defs><style>.a{clip-path:url(#g);}.b{fill:url(#a);}.c{fill:#fff;}.d{filter:url(#d);}.e{filter:url(#b);}</style><radialGradient id="a" cx="0.5" cy="0.5" r="0.5" gradientUnits="objectBoundingBox"><stop offset="0" stop-color="#ff00f7"/><stop offset="1" stop-color="#b400ff"/></radialGradient><filter id="b" x="0.5" y="3.5" width="179" height="179" filterUnits="userSpaceOnUse"><feOffset dy="3" input="SourceAlpha"/><feGaussianBlur stdDeviation="1.5" result="c"/><feFlood flood-opacity="0.161"/><feComposite operator="in" in2="c"/><feComposite in="SourceGraphic"/></filter><filter id="d" x="25" y="20" width="130" height="146" filterUnits="userSpaceOnUse"><feOffset dy="3" input="SourceAlpha"/><feGaussianBlur stdDeviation="3" result="e"/><feFlood flood-opacity="0.161"/><feComposite operator="in" in2="e"/><feComposite in="SourceGraphic"/></filter><clipPath id="g"><rect width="180" height="180"/></clipPath></defs><g id="f" class="a"><g class="e" transform="matrix(1, 0, 0, 1, 0, 0)"><rect class="b" width="170" height="170" rx="20" transform="translate(5 5)"/></g><g class="d" transform="matrix(1, 0, 0, 1, 0, 0)"><path class="c" d="M32,38V30a2.006,2.006,0,0,1,2-2H86a2.006,2.006,0,0,1,2,2v8a2.006,2.006,0,0,1-2,2H34A2.006,2.006,0,0,1,32,38Zm2,22H86a2.006,2.006,0,0,0,2-2V50a2.006,2.006,0,0,0-2-2H34a2.006,2.006,0,0,0-2,2v8A2.006,2.006,0,0,0,34,60Zm74.775,39.925c-1.05,3.25-1.05,12.9,0,16.15A4,4,0,0,1,112,120v4a4.012,4.012,0,0,1-4,4H20A20,20,0,0,1,0,108V20A19.994,19.994,0,0,1,20,0h88a4.012,4.012,0,0,1,4,4V96A4,4,0,0,1,108.775,99.925ZM98.5,100H20a8,8,0,0,0,0,16H98.5A63.463,63.463,0,0,1,98.5,100ZM100,12H20a7.991,7.991,0,0,0-8,8V89.675A19.843,19.843,0,0,1,20,88h80Z" transform="translate(34 26)"/></g></g></svg>