<svg xmlns="http://www.w3.org/2000/svg" xmlns:xlink="http://www.w3.org/1999/xlink" viewBox="0 0 180 180"><defs><style>.a{clip-path:url(#g);}.b{fill:url(#a);}.c{fill:#fff;}.d{filter:url(#d);}.e{filter:url(#b);}</style><radialGradient id="a" cx="0.5" cy="0.5" r="0.5" gradientUnits="objectBoundingBox"><stop offset="0" stop-color="lime"/><stop offset="1" stop-color="#00a732"/></radialGradient><filter id="b" x="0.5" y="3.5" width="179" height="179" filterUnits="userSpaceOnUse"><feOffset dy="3" input="SourceAlpha"/><feGaussianBlur stdDeviation="1.5" result="c"/><feFlood flood-opacity="0.161"/><feComposite operator="in" in2="c"/><feComposite in="SourceGraphic"/></filter><filter id="d" x="15" y="18" width="151" height="151" filterUnits="userSpaceOnUse"><feOffset dy="3" input="SourceAlpha"/><feGaussianBlur stdDeviation="3" result="e"/><feFlood flood-opacity="0.161"/><feComposite operator="in" in2="e"/><feComposite in="SourceGraphic"/></filter><clipPath id="g"><rect width="180" height="180"/></clipPath></defs><g id="f" class="a"><g class="e" transform="matrix(1, 0, 0, 1, 0, 0)"><rect class="b" width="170" height="170" rx="20" transform="translate(5 5)"/></g><g class="d" transform="matrix(1, 0, 0, 1, 0, 0)"><path class="c" d="M105.524,69.673,58.331,40.982a6.447,6.447,0,0,0-9.573,5.631v55.774a6.451,6.451,0,0,0,9.573,5.631l47.194-27.083A6.456,6.456,0,0,0,105.524,69.673ZM141,74.5A66.5,66.5,0,1,0,74.5,141,66.489,66.489,0,0,0,141,74.5Zm-120.129,0A53.629,53.629,0,1,1,74.5,128.129,53.614,53.614,0,0,1,20.871,74.5Z" transform="translate(16 16)"/></g></g></svg>