<svg xmlns="http://www.w3.org/2000/svg" xmlns:xlink="http://www.w3.org/1999/xlink" viewBox="0 0 180 180"><defs><style>.a{clip-path:url(#g);}.b{fill:url(#a);}.c{fill:#fff;}.d{filter:url(#d);}.e{filter:url(#b);}</style><radialGradient id="a" cx="0.5" cy="0.5" r="0.5" gradientUnits="objectBoundingBox"><stop offset="0" stop-color="#00a3ff"/><stop offset="1" stop-color="#006cff"/></radialGradient><filter id="b" x="0.5" y="3.5" width="179" height="179" filterUnits="userSpaceOnUse"><feOffset dy="3" input="SourceAlpha"/><feGaussianBlur stdDeviation="1.5" result="c"/><feFlood flood-opacity="0.161"/><feComposite operator="in" in2="c"/><feComposite in="SourceGraphic"/></filter><filter id="d" x="33" y="19.276" width="114.543" height="146.724" filterUnits="userSpaceOnUse"><feOffset dy="3" input="SourceAlpha"/><feGaussianBlur stdDeviation="3" result="e"/><feFlood flood-opacity="0.161"/><feComposite operator="in" in2="e"/><feComposite in="SourceGraphic"/></filter><clipPath id="g"><rect width="180" height="180"/></clipPath></defs><g id="f" class="a"><g class="e" transform="matrix(1, 0, 0, 1, 0, 0)"><rect class="b" width="170" height="170" rx="20" transform="translate(5 5)"/></g><g class="d" transform="matrix(1, 0, 0, 1, 0, 0)"><path class="c" d="M92.98,24.633,71.889,3.545A12.067,12.067,0,0,0,63.369,0h-51.3A12.108,12.108,0,0,0,0,12.09V116.658a12.07,12.07,0,0,0,12.065,12.065H84.457a12.085,12.085,0,0,0,12.085-12.065V33.179A12.142,12.142,0,0,0,92.98,24.633ZM64.349,13.071,83.479,32.2H64.349ZM84.475,116.658H12.065V12.09H52.284V38.232a6.017,6.017,0,0,0,6.034,6.031H84.475ZM46,57.269,27.824,75.313a3.018,3.018,0,0,0,2.124,5.159H42.237v21.119a3.016,3.016,0,0,0,3.017,3.017h6.034a3.016,3.016,0,0,0,3.017-3.017V80.472H66.594a3.017,3.017,0,0,0,2.124-5.159L50.539,57.269a3.222,3.222,0,0,0-4.536,0Z" transform="translate(42 25.28)"/></g></g></svg>