<?xml version="1.0" encoding="UTF-8" standalone="no"?>
<svg
   xmlns:dc="http://purl.org/dc/elements/1.1/"
   xmlns:cc="http://creativecommons.org/ns#"
   xmlns:rdf="http://www.w3.org/1999/02/22-rdf-syntax-ns#"
   xmlns:svg="http://www.w3.org/2000/svg"
   xmlns="http://www.w3.org/2000/svg"
   version="1.1"
   id="svg3847"
   viewBox="0 0 350 148.972"
   height="148.972"
   width="350">
  <defs
     id="defs3849" />
  <metadata
     id="metadata3852">
    <rdf:RDF>
      <cc:Work
         rdf:about="">
        <dc:format>image/svg+xml</dc:format>
        <dc:type
           rdf:resource="http://purl.org/dc/dcmitype/StillImage" />
        <dc:title></dc:title>
      </cc:Work>
    </rdf:RDF>
  </metadata>
  <g
     transform="translate(0,-903.39016)"
     id="layer1">
    <g
       transform="matrix(2.0110502,0,0,2.0110502,-5.7547864,897.63519)"
       id="g3858">
      <g
         id="g3860">
        <g
           id="g3862">
          <g
             id="g3864">
            <path
               style="fill:#000000"
               class="st0"
               d="m 175.7,28.6 c -0.7,0 -1.2,-0.5 -1.2,-1.2 0,-0.7 0.5,-1.2 1.2,-1.2 0.7,0 1.2,0.5 1.2,1.2 0,0.7 -0.5,1.2 -1.2,1.2 z m 0,-2.1 c -0.5,0 -1,0.4 -1,1 0,0.5 0.4,1 1,1 0.5,0 1,-0.4 1,-1 0,-0.6 -0.5,-1 -1,-1 z"
               id="path3866" />
          </g>
        </g>
        <g
           id="g3868">
          <path
             style="fill:#000000"
             class="st0"
             d="m 176.2,28 -0.2,0 -0.2,-0.5 -0.3,0 0,0.5 -0.2,0 0,-1.2 0.5,0 c 0.1,0 0.2,0 0.3,0.1 0.1,0.1 0.1,0.1 0.1,0.3 0,0.2 -0.1,0.3 -0.2,0.3 l 0.2,0.5 z m -0.7,-0.6 0.3,0 c 0.1,0 0.1,0 0.2,0 0,0 0.1,-0.1 0.1,-0.1 0,-0.1 0,-0.1 -0.1,-0.1 -0.1,0 -0.1,0 -0.2,0 l -0.3,0 0,0.2 z"
             id="path3870" />
        </g>
      </g>
      <g
         id="g3872">
        <path
           style="fill:#000000"
           class="st0"
           d="m 33.5,26.3 15.8,0 0,4.6 -10,0 0,7 7.7,0 0,4.6 -7.7,0 0,10.5 -5.9,0 0,-26.7 z"
           id="path3874" />
      </g>
      <g
         id="g3876">
        <path
           style="fill:#000000"
           class="st0"
           d="m 51.4,26.3 8.4,0 c 1.6,0 2.9,0.1 3.7,0.2 0.9,0.2 1.7,0.6 2.6,1.2 0.9,0.7 1.6,1.6 2.1,2.7 0.5,1.1 0.8,2.4 0.8,3.8 0,3.3 -1.3,5.7 -3.8,7 l 4.9,11.8 -6.4,0 -3.6,-10.6 -2.9,0 0,10.6 -5.9,0 0,-26.7 z m 5.8,4.3 0,7.5 2.6,0 c 2.3,0 3.4,-1.3 3.4,-3.9 0,-0.9 -0.2,-1.6 -0.5,-2.2 -0.3,-0.6 -0.7,-1 -1.2,-1.2 -0.4,-0.2 -1.1,-0.3 -2,-0.3 l -2.3,0 z"
           id="path3878" />
      </g>
      <g
         id="g3880">
        <path
           style="fill:#000000"
           class="st0"
           d="m 92.1,26.3 6.5,0 6.9,16.6 0,-16.6 4.5,0 0,26.7 -5.2,0 -8.1,-19.3 0,19.3 -4.5,0 0,-26.7 z"
           id="path3882" />
      </g>
      <g
         id="g3884">
        <path
           style="fill:#000000"
           class="st0"
           d="m 112.1,26.3 16.6,0 0,5 -5.5,0 0,21.7 -5.9,0 0,-21.7 -5.3,0 0,-5 z"
           id="path3886" />
      </g>
      <g
         id="g3888">
        <path
           style="fill:#000000"
           class="st0"
           d="m 130.6,26.3 5.9,0 0,26.7 -5.9,0 0,-26.7 z"
           id="path3890" />
      </g>
      <g
         id="g3892">
        <path
           style="fill:#000000"
           class="st0"
           d="m 138.4,26.3 16.2,0 0,4.6 -10.4,0 0,6.2 8.1,0 0,4.6 -8.1,0 0,6.6 10.4,0 0,4.7 -16.2,0 0,-26.7 z"
           id="path3894" />
      </g>
      <g
         id="g3896">
        <path
           style="fill:#000000"
           class="st0"
           d="m 156.7,26.3 8.4,0 c 1.6,0 2.9,0.1 3.7,0.2 0.9,0.2 1.7,0.6 2.6,1.2 0.9,0.7 1.6,1.6 2.1,2.7 0.5,1.1 0.8,2.4 0.8,3.8 0,3.3 -1.3,5.7 -3.8,7 l 4.9,11.7 -6.4,0 -3.6,-10.6 -2.9,0 0,10.7 -5.9,0 0,-26.7 z m 5.8,4.3 0,7.5 2.6,0 c 2.3,0 3.4,-1.3 3.4,-3.9 0,-0.9 -0.2,-1.6 -0.5,-2.2 -0.3,-0.6 -0.7,-1 -1.2,-1.2 -0.4,-0.2 -1.1,-0.3 -2,-0.3 l -2.3,0 z"
           id="path3898" />
      </g>
      <g
         id="g3900">
        <path
           style="fill:#000000"
           class="st0"
           d="m 90.1,39.6 c 0,9.2 -3.2,13.8 -9.7,13.8 -3.2,0 -5.6,-1.2 -7.3,-3.5 -1.6,-2.3 -2.4,-5.8 -2.4,-10.3 0,-9.2 3.2,-13.7 9.7,-13.7 3.2,0 5.6,1.1 7.2,3.4 1.7,2.3 2.5,5.8 2.5,10.3 z m -6.1,0 c 0,-3.6 -0.3,-6 -0.8,-7.2 -0.5,-1.2 -1.5,-1.8 -2.7,-1.8 -1.2,0 -2.1,0.6 -2.7,1.8 -0.6,1.2 -0.8,3.6 -0.8,7.2 0,3.5 0.3,5.9 0.8,7.1 0.6,1.2 1.4,1.9 2.7,1.9 1.2,0 2.1,-0.6 2.7,-1.8 0.5,-1.1 0.8,-3.6 0.8,-7.2 z"
           id="path3902" />
      </g>
      <path
         style="fill:#000000"
         class="st0"
         d="M 44.1,3.1 C 23.7,0.8 5.4,15.4 3.1,35.7 0.8,56 15.4,74.4 35.7,76.7 56,79 74.4,64.4 76.7,44.1 79,23.7 64.4,5.4 44.1,3.1 Z M 11.3,53.6 C 8.7,48.2 7.5,41.9 8.2,35.5 10.3,17.3 26.6,4.3 44.8,6.3 48.5,6.7 52,7.7 55.2,9.2 26.6,8.7 10.5,32.8 11.3,53.6 Z M 73.9,42.9 C 71.8,61 55.5,74.1 37.3,72 33.1,71.5 29.2,70.3 25.7,68.4 10.7,58 15.2,37.2 23.5,26 34.7,13 58.5,7.5 69,21.3 c 3.9,6.3 5.8,13.8 4.9,21.6 z"
         id="path3904" />
    </g>
  </g>
  <style
     type="text/css"
     id="style3856">
	.st0{fill:#000000;}
</style>
</svg>
