<?xml version="1.0" standalone="no"?><!-- Generator: Gravit.io --><svg xmlns="http://www.w3.org/2000/svg" xmlns:xlink="http://www.w3.org/1999/xlink" style="isolation:isolate" viewBox="168.787 528 257.701 257.701" width="257.701" height="257.701"><g><rect x="168.787" y="528" width="257.701" height="257.701" transform="matrix(1,0,0,1,0,0)" fill="rgb(255,255,255)"/><g><path d=" M 178.332 537.544 L 187.876 537.544 L 187.876 547.089 L 178.332 547.089 L 178.332 537.544 Z  M 187.876 537.544 L 197.421 537.544 L 197.421 547.089 L 187.876 547.089 L 187.876 537.544 Z  M 197.421 537.544 L 206.965 537.544 L 206.965 547.089 L 197.421 547.089 L 197.421 537.544 Z  M 206.965 537.544 L 216.51 537.544 L 216.51 547.089 L 206.965 547.089 L 206.965 537.544 Z  M 216.51 537.544 L 226.054 537.544 L 226.054 547.089 L 216.51 547.089 L 216.51 537.544 Z  M 226.054 537.544 L 235.599 537.544 L 235.599 547.089 L 226.054 547.089 L 226.054 537.544 Z  M 235.599 537.544 L 245.143 537.544 L 245.143 547.089 L 235.599 547.089 L 235.599 537.544 Z  M 292.866 537.544 L 302.41 537.544 L 302.41 547.089 L 292.866 547.089 L 292.866 537.544 Z  M 331.043 537.544 L 340.588 537.544 L 340.588 547.089 L 331.043 547.089 L 331.043 537.544 Z  M 350.132 537.544 L 359.677 537.544 L 359.677 547.089 L 350.132 547.089 L 350.132 537.544 Z  M 359.677 537.544 L 369.221 537.544 L 369.221 547.089 L 359.677 547.089 L 359.677 537.544 Z  M 369.221 537.544 L 378.766 537.544 L 378.766 547.089 L 369.221 547.089 L 369.221 537.544 Z  M 378.766 537.544 L 388.31 537.544 L 388.31 547.089 L 378.766 547.089 L 378.766 537.544 Z  M 388.31 537.544 L 397.855 537.544 L 397.855 547.089 L 388.31 547.089 L 388.31 537.544 Z  M 397.855 537.544 L 407.399 537.544 L 407.399 547.089 L 397.855 547.089 L 397.855 537.544 Z  M 407.399 537.544 L 416.944 537.544 L 416.944 547.089 L 407.399 547.089 L 407.399 537.544 Z  M 178.332 547.089 L 187.876 547.089 L 187.876 556.633 L 178.332 556.633 L 178.332 547.089 Z  M 235.599 547.089 L 245.143 547.089 L 245.143 556.633 L 235.599 556.633 L 235.599 547.089 Z  M 254.688 547.089 L 264.232 547.089 L 264.232 556.633 L 254.688 556.633 L 254.688 547.089 Z  M 273.777 547.089 L 283.321 547.089 L 283.321 556.633 L 273.777 556.633 L 273.777 547.089 Z  M 292.866 547.089 L 302.41 547.089 L 302.41 556.633 L 292.866 556.633 L 292.866 547.089 Z  M 302.41 547.089 L 311.955 547.089 L 311.955 556.633 L 302.41 556.633 L 302.41 547.089 Z  M 321.499 547.089 L 331.043 547.089 L 331.043 556.633 L 321.499 556.633 L 321.499 547.089 Z  M 331.043 547.089 L 340.588 547.089 L 340.588 556.633 L 331.043 556.633 L 331.043 547.089 Z  M 350.132 547.089 L 359.677 547.089 L 359.677 556.633 L 350.132 556.633 L 350.132 547.089 Z  M 407.399 547.089 L 416.944 547.089 L 416.944 556.633 L 407.399 556.633 L 407.399 547.089 Z  M 178.332 556.633 L 187.876 556.633 L 187.876 566.178 L 178.332 566.178 L 178.332 556.633 Z  M 197.421 556.633 L 206.965 556.633 L 206.965 566.178 L 197.421 566.178 L 197.421 556.633 Z  M 206.965 556.633 L 216.51 556.633 L 216.51 566.178 L 206.965 566.178 L 206.965 556.633 Z  M 216.51 556.633 L 226.054 556.633 L 226.054 566.178 L 216.51 566.178 L 216.51 556.633 Z  M 235.599 556.633 L 245.143 556.633 L 245.143 566.178 L 235.599 566.178 L 235.599 556.633 Z  M 331.043 556.633 L 340.588 556.633 L 340.588 566.178 L 331.043 566.178 L 331.043 556.633 Z  M 350.132 556.633 L 359.677 556.633 L 359.677 566.178 L 350.132 566.178 L 350.132 556.633 Z  M 369.221 556.633 L 378.766 556.633 L 378.766 566.178 L 369.221 566.178 L 369.221 556.633 Z  M 378.766 556.633 L 388.31 556.633 L 388.31 566.178 L 378.766 566.178 L 378.766 556.633 Z  M 388.31 556.633 L 397.855 556.633 L 397.855 566.178 L 388.31 566.178 L 388.31 556.633 Z  M 407.399 556.633 L 416.944 556.633 L 416.944 566.178 L 407.399 566.178 L 407.399 556.633 Z  M 178.332 566.178 L 187.876 566.178 L 187.876 575.722 L 178.332 575.722 L 178.332 566.178 Z  M 197.421 566.178 L 206.965 566.178 L 206.965 575.722 L 197.421 575.722 L 197.421 566.178 Z  M 206.965 566.178 L 216.51 566.178 L 216.51 575.722 L 206.965 575.722 L 206.965 566.178 Z  M 216.51 566.178 L 226.054 566.178 L 226.054 575.722 L 216.51 575.722 L 216.51 566.178 Z  M 235.599 566.178 L 245.143 566.178 L 245.143 575.722 L 235.599 575.722 L 235.599 566.178 Z  M 254.688 566.178 L 264.232 566.178 L 264.232 575.722 L 254.688 575.722 L 254.688 566.178 Z  M 264.232 566.178 L 273.777 566.178 L 273.777 575.722 L 264.232 575.722 L 264.232 566.178 Z  M 273.777 566.178 L 283.321 566.178 L 283.321 575.722 L 273.777 575.722 L 273.777 566.178 Z  M 283.321 566.178 L 292.866 566.178 L 292.866 575.722 L 283.321 575.722 L 283.321 566.178 Z  M 292.866 566.178 L 302.41 566.178 L 302.41 575.722 L 292.866 575.722 L 292.866 566.178 Z  M 302.41 566.178 L 311.955 566.178 L 311.955 575.722 L 302.41 575.722 L 302.41 566.178 Z  M 311.955 566.178 L 321.499 566.178 L 321.499 575.722 L 311.955 575.722 L 311.955 566.178 Z  M 350.132 566.178 L 359.677 566.178 L 359.677 575.722 L 350.132 575.722 L 350.132 566.178 Z  M 369.221 566.178 L 378.766 566.178 L 378.766 575.722 L 369.221 575.722 L 369.221 566.178 Z  M 378.766 566.178 L 388.31 566.178 L 388.31 575.722 L 378.766 575.722 L 378.766 566.178 Z  M 388.31 566.178 L 397.855 566.178 L 397.855 575.722 L 388.31 575.722 L 388.31 566.178 Z  M 407.399 566.178 L 416.944 566.178 L 416.944 575.722 L 407.399 575.722 L 407.399 566.178 Z  M 178.332 575.722 L 187.876 575.722 L 187.876 585.267 L 178.332 585.267 L 178.332 575.722 Z  M 197.421 575.722 L 206.965 575.722 L 206.965 585.267 L 197.421 585.267 L 197.421 575.722 Z  M 206.965 575.722 L 216.51 575.722 L 216.51 585.267 L 206.965 585.267 L 206.965 575.722 Z  M 216.51 575.722 L 226.054 575.722 L 226.054 585.267 L 216.51 585.267 L 216.51 575.722 Z  M 235.599 575.722 L 245.143 575.722 L 245.143 585.267 L 235.599 585.267 L 235.599 575.722 Z  M 264.232 575.722 L 273.777 575.722 L 273.777 585.267 L 264.232 585.267 L 264.232 575.722 Z  M 283.321 575.722 L 292.866 575.722 L 292.866 585.267 L 283.321 585.267 L 283.321 575.722 Z  M 302.41 575.722 L 311.955 575.722 L 311.955 585.267 L 302.41 585.267 L 302.41 575.722 Z  M 331.043 575.722 L 340.588 575.722 L 340.588 585.267 L 331.043 585.267 L 331.043 575.722 Z  M 350.132 575.722 L 359.677 575.722 L 359.677 585.267 L 350.132 585.267 L 350.132 575.722 Z  M 369.221 575.722 L 378.766 575.722 L 378.766 585.267 L 369.221 585.267 L 369.221 575.722 Z  M 378.766 575.722 L 388.31 575.722 L 388.31 585.267 L 378.766 585.267 L 378.766 575.722 Z  M 388.31 575.722 L 397.855 575.722 L 397.855 585.267 L 388.31 585.267 L 388.31 575.722 Z  M 407.399 575.722 L 416.944 575.722 L 416.944 585.267 L 407.399 585.267 L 407.399 575.722 Z  M 178.332 585.267 L 187.876 585.267 L 187.876 594.811 L 178.332 594.811 L 178.332 585.267 Z  M 235.599 585.267 L 245.143 585.267 L 245.143 594.811 L 235.599 594.811 L 235.599 585.267 Z  M 254.688 585.267 L 264.232 585.267 L 264.232 594.811 L 254.688 594.811 L 254.688 585.267 Z  M 264.232 585.267 L 273.777 585.267 L 273.777 594.811 L 264.232 594.811 L 264.232 585.267 Z  M 292.866 585.267 L 302.41 585.267 L 302.41 594.811 L 292.866 594.811 L 292.866 585.267 Z  M 302.41 585.267 L 311.955 585.267 L 311.955 594.811 L 302.41 594.811 L 302.41 585.267 Z  M 311.955 585.267 L 321.499 585.267 L 321.499 594.811 L 311.955 594.811 L 311.955 585.267 Z  M 321.499 585.267 L 331.043 585.267 L 331.043 594.811 L 321.499 594.811 L 321.499 585.267 Z  M 350.132 585.267 L 359.677 585.267 L 359.677 594.811 L 350.132 594.811 L 350.132 585.267 Z  M 407.399 585.267 L 416.944 585.267 L 416.944 594.811 L 407.399 594.811 L 407.399 585.267 Z  M 178.332 594.811 L 187.876 594.811 L 187.876 604.356 L 178.332 604.356 L 178.332 594.811 Z  M 187.876 594.811 L 197.421 594.811 L 197.421 604.356 L 187.876 604.356 L 187.876 594.811 Z  M 197.421 594.811 L 206.965 594.811 L 206.965 604.356 L 197.421 604.356 L 197.421 594.811 Z  M 206.965 594.811 L 216.51 594.811 L 216.51 604.356 L 206.965 604.356 L 206.965 594.811 Z  M 216.51 594.811 L 226.054 594.811 L 226.054 604.356 L 216.51 604.356 L 216.51 594.811 Z  M 226.054 594.811 L 235.599 594.811 L 235.599 604.356 L 226.054 604.356 L 226.054 594.811 Z  M 235.599 594.811 L 245.143 594.811 L 245.143 604.356 L 235.599 604.356 L 235.599 594.811 Z  M 254.688 594.811 L 264.232 594.811 L 264.232 604.356 L 254.688 604.356 L 254.688 594.811 Z  M 273.777 594.811 L 283.321 594.811 L 283.321 604.356 L 273.777 604.356 L 273.777 594.811 Z  M 292.866 594.811 L 302.41 594.811 L 302.41 604.356 L 292.866 604.356 L 292.866 594.811 Z  M 311.955 594.811 L 321.499 594.811 L 321.499 604.356 L 311.955 604.356 L 311.955 594.811 Z  M 331.043 594.811 L 340.588 594.811 L 340.588 604.356 L 331.043 604.356 L 331.043 594.811 Z  M 350.132 594.811 L 359.677 594.811 L 359.677 604.356 L 350.132 604.356 L 350.132 594.811 Z  M 359.677 594.811 L 369.221 594.811 L 369.221 604.356 L 359.677 604.356 L 359.677 594.811 Z  M 369.221 594.811 L 378.766 594.811 L 378.766 604.356 L 369.221 604.356 L 369.221 594.811 Z  M 378.766 594.811 L 388.31 594.811 L 388.31 604.356 L 378.766 604.356 L 378.766 594.811 Z  M 388.31 594.811 L 397.855 594.811 L 397.855 604.356 L 388.31 604.356 L 388.31 594.811 Z  M 397.855 594.811 L 407.399 594.811 L 407.399 604.356 L 397.855 604.356 L 397.855 594.811 Z  M 407.399 594.811 L 416.944 594.811 L 416.944 604.356 L 407.399 604.356 L 407.399 594.811 Z  M 264.232 604.356 L 273.777 604.356 L 273.777 613.9 L 264.232 613.9 L 264.232 604.356 Z  M 273.777 604.356 L 283.321 604.356 L 283.321 613.9 L 273.777 613.9 L 273.777 604.356 Z  M 311.955 604.356 L 321.499 604.356 L 321.499 613.9 L 311.955 613.9 L 311.955 604.356 Z  M 178.332 613.9 L 187.876 613.9 L 187.876 623.445 L 178.332 623.445 L 178.332 613.9 Z  M 187.876 613.9 L 197.421 613.9 L 197.421 623.445 L 187.876 623.445 L 187.876 613.9 Z  M 197.421 613.9 L 206.965 613.9 L 206.965 623.445 L 197.421 623.445 L 197.421 613.9 Z  M 206.965 613.9 L 216.51 613.9 L 216.51 623.445 L 206.965 623.445 L 206.965 613.9 Z  M 216.51 613.9 L 226.054 613.9 L 226.054 623.445 L 216.51 623.445 L 216.51 613.9 Z  M 235.599 613.9 L 245.143 613.9 L 245.143 623.445 L 235.599 623.445 L 235.599 613.9 Z  M 245.143 613.9 L 254.688 613.9 L 254.688 623.445 L 245.143 623.445 L 245.143 613.9 Z  M 254.688 613.9 L 264.232 613.9 L 264.232 623.445 L 254.688 623.445 L 254.688 613.9 Z  M 264.232 613.9 L 273.777 613.9 L 273.777 623.445 L 264.232 623.445 L 264.232 613.9 Z  M 292.866 613.9 L 302.41 613.9 L 302.41 623.445 L 292.866 623.445 L 292.866 613.9 Z  M 302.41 613.9 L 311.955 613.9 L 311.955 623.445 L 302.41 623.445 L 302.41 613.9 Z  M 311.955 613.9 L 321.499 613.9 L 321.499 623.445 L 311.955 623.445 L 311.955 613.9 Z  M 321.499 613.9 L 331.043 613.9 L 331.043 623.445 L 321.499 623.445 L 321.499 613.9 Z  M 331.043 613.9 L 340.588 613.9 L 340.588 623.445 L 331.043 623.445 L 331.043 613.9 Z  M 340.588 613.9 L 350.132 613.9 L 350.132 623.445 L 340.588 623.445 L 340.588 613.9 Z  M 359.677 613.9 L 369.221 613.9 L 369.221 623.445 L 359.677 623.445 L 359.677 613.9 Z  M 378.766 613.9 L 388.31 613.9 L 388.31 623.445 L 378.766 623.445 L 378.766 613.9 Z  M 397.855 613.9 L 407.399 613.9 L 407.399 623.445 L 397.855 623.445 L 397.855 613.9 Z  M 216.51 623.445 L 226.054 623.445 L 226.054 632.989 L 216.51 632.989 L 216.51 623.445 Z  M 245.143 623.445 L 254.688 623.445 L 254.688 632.989 L 245.143 632.989 L 245.143 623.445 Z  M 273.777 623.445 L 283.321 623.445 L 283.321 632.989 L 273.777 632.989 L 273.777 623.445 Z  M 283.321 623.445 L 292.866 623.445 L 292.866 632.989 L 283.321 632.989 L 283.321 623.445 Z  M 331.043 623.445 L 340.588 623.445 L 340.588 632.989 L 331.043 632.989 L 331.043 623.445 Z  M 340.588 623.445 L 350.132 623.445 L 350.132 632.989 L 340.588 632.989 L 340.588 623.445 Z  M 359.677 623.445 L 369.221 623.445 L 369.221 632.989 L 359.677 632.989 L 359.677 623.445 Z  M 397.855 623.445 L 407.399 623.445 L 407.399 632.989 L 397.855 632.989 L 397.855 623.445 Z  M 187.876 632.989 L 197.421 632.989 L 197.421 642.534 L 187.876 642.534 L 187.876 632.989 Z  M 197.421 632.989 L 206.965 632.989 L 206.965 642.534 L 197.421 642.534 L 197.421 632.989 Z  M 235.599 632.989 L 245.143 632.989 L 245.143 642.534 L 235.599 642.534 L 235.599 632.989 Z  M 273.777 632.989 L 283.321 632.989 L 283.321 642.534 L 273.777 642.534 L 273.777 632.989 Z  M 302.41 632.989 L 311.955 632.989 L 311.955 642.534 L 302.41 642.534 L 302.41 632.989 Z  M 321.499 632.989 L 331.043 632.989 L 331.043 642.534 L 321.499 642.534 L 321.499 632.989 Z  M 331.043 632.989 L 340.588 632.989 L 340.588 642.534 L 331.043 642.534 L 331.043 632.989 Z  M 350.132 632.989 L 359.677 632.989 L 359.677 642.534 L 350.132 642.534 L 350.132 632.989 Z  M 359.677 632.989 L 369.221 632.989 L 369.221 642.534 L 359.677 642.534 L 359.677 632.989 Z  M 378.766 632.989 L 388.31 632.989 L 388.31 642.534 L 378.766 642.534 L 378.766 632.989 Z  M 397.855 632.989 L 407.399 632.989 L 407.399 642.534 L 397.855 642.534 L 397.855 632.989 Z  M 407.399 632.989 L 416.944 632.989 L 416.944 642.534 L 407.399 642.534 L 407.399 632.989 Z  M 178.332 642.534 L 187.876 642.534 L 187.876 652.078 L 178.332 652.078 L 178.332 642.534 Z  M 216.51 642.534 L 226.054 642.534 L 226.054 652.078 L 216.51 652.078 L 216.51 642.534 Z  M 283.321 642.534 L 292.866 642.534 L 292.866 652.078 L 283.321 652.078 L 283.321 642.534 Z  M 311.955 642.534 L 321.499 642.534 L 321.499 652.078 L 311.955 652.078 L 311.955 642.534 Z  M 321.499 642.534 L 331.043 642.534 L 331.043 652.078 L 321.499 652.078 L 321.499 642.534 Z  M 331.043 642.534 L 340.588 642.534 L 340.588 652.078 L 331.043 652.078 L 331.043 642.534 Z  M 350.132 642.534 L 359.677 642.534 L 359.677 652.078 L 350.132 652.078 L 350.132 642.534 Z  M 407.399 642.534 L 416.944 642.534 L 416.944 652.078 L 407.399 652.078 L 407.399 642.534 Z  M 178.332 652.078 L 187.876 652.078 L 187.876 661.623 L 178.332 661.623 L 178.332 652.078 Z  M 187.876 652.078 L 197.421 652.078 L 197.421 661.623 L 187.876 661.623 L 187.876 652.078 Z  M 216.51 652.078 L 226.054 652.078 L 226.054 661.623 L 216.51 661.623 L 216.51 652.078 Z  M 226.054 652.078 L 235.599 652.078 L 235.599 661.623 L 226.054 661.623 L 226.054 652.078 Z  M 235.599 652.078 L 245.143 652.078 L 245.143 661.623 L 235.599 661.623 L 235.599 652.078 Z  M 254.688 652.078 L 264.232 652.078 L 264.232 661.623 L 254.688 661.623 L 254.688 652.078 Z  M 264.232 652.078 L 273.777 652.078 L 273.777 661.623 L 264.232 661.623 L 264.232 652.078 Z  M 273.777 652.078 L 283.321 652.078 L 283.321 661.623 L 273.777 661.623 L 273.777 652.078 Z  M 283.321 652.078 L 292.866 652.078 L 292.866 661.623 L 283.321 661.623 L 283.321 652.078 Z  M 292.866 652.078 L 302.41 652.078 L 302.41 661.623 L 292.866 661.623 L 292.866 652.078 Z  M 302.41 652.078 L 311.955 652.078 L 311.955 661.623 L 302.41 661.623 L 302.41 652.078 Z  M 311.955 652.078 L 321.499 652.078 L 321.499 661.623 L 311.955 661.623 L 311.955 652.078 Z  M 340.588 652.078 L 350.132 652.078 L 350.132 661.623 L 340.588 661.623 L 340.588 652.078 Z  M 350.132 652.078 L 359.677 652.078 L 359.677 661.623 L 350.132 661.623 L 350.132 652.078 Z  M 369.221 652.078 L 378.766 652.078 L 378.766 661.623 L 369.221 661.623 L 369.221 652.078 Z  M 388.31 652.078 L 397.855 652.078 L 397.855 661.623 L 388.31 661.623 L 388.31 652.078 Z  M 397.855 652.078 L 407.399 652.078 L 407.399 661.623 L 397.855 661.623 L 397.855 652.078 Z  M 407.399 652.078 L 416.944 652.078 L 416.944 661.623 L 407.399 661.623 L 407.399 652.078 Z  M 178.332 661.623 L 187.876 661.623 L 187.876 671.167 L 178.332 671.167 L 178.332 661.623 Z  M 197.421 661.623 L 206.965 661.623 L 206.965 671.167 L 197.421 671.167 L 197.421 661.623 Z  M 254.688 661.623 L 264.232 661.623 L 264.232 671.167 L 254.688 671.167 L 254.688 661.623 Z  M 283.321 661.623 L 292.866 661.623 L 292.866 671.167 L 283.321 671.167 L 283.321 661.623 Z  M 292.866 661.623 L 302.41 661.623 L 302.41 671.167 L 292.866 671.167 L 292.866 661.623 Z  M 302.41 661.623 L 311.955 661.623 L 311.955 671.167 L 302.41 671.167 L 302.41 661.623 Z  M 340.588 661.623 L 350.132 661.623 L 350.132 671.167 L 340.588 671.167 L 340.588 661.623 Z  M 359.677 661.623 L 369.221 661.623 L 369.221 671.167 L 359.677 671.167 L 359.677 661.623 Z  M 378.766 661.623 L 388.31 661.623 L 388.31 671.167 L 378.766 671.167 L 378.766 661.623 Z  M 397.855 661.623 L 407.399 661.623 L 407.399 671.167 L 397.855 671.167 L 397.855 661.623 Z  M 178.332 671.167 L 187.876 671.167 L 187.876 680.712 L 178.332 680.712 L 178.332 671.167 Z  M 216.51 671.167 L 226.054 671.167 L 226.054 680.712 L 216.51 680.712 L 216.51 671.167 Z  M 235.599 671.167 L 245.143 671.167 L 245.143 680.712 L 235.599 680.712 L 235.599 671.167 Z  M 254.688 671.167 L 264.232 671.167 L 264.232 680.712 L 254.688 680.712 L 254.688 671.167 Z  M 264.232 671.167 L 273.777 671.167 L 273.777 680.712 L 264.232 680.712 L 264.232 671.167 Z  M 302.41 671.167 L 311.955 671.167 L 311.955 680.712 L 302.41 680.712 L 302.41 671.167 Z  M 311.955 671.167 L 321.499 671.167 L 321.499 680.712 L 311.955 680.712 L 311.955 671.167 Z  M 321.499 671.167 L 331.043 671.167 L 331.043 680.712 L 321.499 680.712 L 321.499 671.167 Z  M 350.132 671.167 L 359.677 671.167 L 359.677 680.712 L 350.132 680.712 L 350.132 671.167 Z  M 359.677 671.167 L 369.221 671.167 L 369.221 680.712 L 359.677 680.712 L 359.677 671.167 Z  M 369.221 671.167 L 378.766 671.167 L 378.766 680.712 L 369.221 680.712 L 369.221 671.167 Z  M 378.766 671.167 L 388.31 671.167 L 388.31 680.712 L 378.766 680.712 L 378.766 671.167 Z  M 397.855 671.167 L 407.399 671.167 L 407.399 680.712 L 397.855 680.712 L 397.855 671.167 Z  M 407.399 671.167 L 416.944 671.167 L 416.944 680.712 L 407.399 680.712 L 407.399 671.167 Z  M 178.332 680.712 L 187.876 680.712 L 187.876 690.256 L 178.332 690.256 L 178.332 680.712 Z  M 206.965 680.712 L 216.51 680.712 L 216.51 690.256 L 206.965 690.256 L 206.965 680.712 Z  M 216.51 680.712 L 226.054 680.712 L 226.054 690.256 L 216.51 690.256 L 216.51 680.712 Z  M 264.232 680.712 L 273.777 680.712 L 273.777 690.256 L 264.232 690.256 L 264.232 680.712 Z  M 273.777 680.712 L 283.321 680.712 L 283.321 690.256 L 273.777 690.256 L 273.777 680.712 Z  M 283.321 680.712 L 292.866 680.712 L 292.866 690.256 L 283.321 690.256 L 283.321 680.712 Z  M 311.955 680.712 L 321.499 680.712 L 321.499 690.256 L 311.955 690.256 L 311.955 680.712 Z  M 350.132 680.712 L 359.677 680.712 L 359.677 690.256 L 350.132 690.256 L 350.132 680.712 Z  M 359.677 680.712 L 369.221 680.712 L 369.221 690.256 L 359.677 690.256 L 359.677 680.712 Z  M 369.221 680.712 L 378.766 680.712 L 378.766 690.256 L 369.221 690.256 L 369.221 680.712 Z  M 407.399 680.712 L 416.944 680.712 L 416.944 690.256 L 407.399 690.256 L 407.399 680.712 Z  M 178.332 690.256 L 187.876 690.256 L 187.876 699.801 L 178.332 699.801 L 178.332 690.256 Z  M 206.965 690.256 L 216.51 690.256 L 216.51 699.801 L 206.965 699.801 L 206.965 690.256 Z  M 216.51 690.256 L 226.054 690.256 L 226.054 699.801 L 216.51 699.801 L 216.51 690.256 Z  M 235.599 690.256 L 245.143 690.256 L 245.143 699.801 L 235.599 699.801 L 235.599 690.256 Z  M 273.777 690.256 L 283.321 690.256 L 283.321 699.801 L 273.777 699.801 L 273.777 690.256 Z  M 292.866 690.256 L 302.41 690.256 L 302.41 699.801 L 292.866 699.801 L 292.866 690.256 Z  M 302.41 690.256 L 311.955 690.256 L 311.955 699.801 L 302.41 699.801 L 302.41 690.256 Z  M 311.955 690.256 L 321.499 690.256 L 321.499 699.801 L 311.955 699.801 L 311.955 690.256 Z  M 321.499 690.256 L 331.043 690.256 L 331.043 699.801 L 321.499 699.801 L 321.499 690.256 Z  M 331.043 690.256 L 340.588 690.256 L 340.588 699.801 L 331.043 699.801 L 331.043 690.256 Z  M 340.588 690.256 L 350.132 690.256 L 350.132 699.801 L 340.588 699.801 L 340.588 690.256 Z  M 350.132 690.256 L 359.677 690.256 L 359.677 699.801 L 350.132 699.801 L 350.132 690.256 Z  M 359.677 690.256 L 369.221 690.256 L 369.221 699.801 L 359.677 699.801 L 359.677 690.256 Z  M 369.221 690.256 L 378.766 690.256 L 378.766 699.801 L 369.221 699.801 L 369.221 690.256 Z  M 388.31 690.256 L 397.855 690.256 L 397.855 699.801 L 388.31 699.801 L 388.31 690.256 Z  M 254.688 699.801 L 264.232 699.801 L 264.232 709.345 L 254.688 709.345 L 254.688 699.801 Z  M 273.777 699.801 L 283.321 699.801 L 283.321 709.345 L 273.777 709.345 L 273.777 699.801 Z  M 283.321 699.801 L 292.866 699.801 L 292.866 709.345 L 283.321 709.345 L 283.321 699.801 Z  M 302.41 699.801 L 311.955 699.801 L 311.955 709.345 L 302.41 709.345 L 302.41 699.801 Z  M 331.043 699.801 L 340.588 699.801 L 340.588 709.345 L 331.043 709.345 L 331.043 699.801 Z  M 369.221 699.801 L 378.766 699.801 L 378.766 709.345 L 369.221 709.345 L 369.221 699.801 Z  M 378.766 699.801 L 388.31 699.801 L 388.31 709.345 L 378.766 709.345 L 378.766 699.801 Z  M 178.332 709.345 L 187.876 709.345 L 187.876 718.889 L 178.332 718.889 L 178.332 709.345 Z  M 187.876 709.345 L 197.421 709.345 L 197.421 718.889 L 187.876 718.889 L 187.876 709.345 Z  M 197.421 709.345 L 206.965 709.345 L 206.965 718.889 L 197.421 718.889 L 197.421 709.345 Z  M 206.965 709.345 L 216.51 709.345 L 216.51 718.889 L 206.965 718.889 L 206.965 709.345 Z  M 216.51 709.345 L 226.054 709.345 L 226.054 718.889 L 216.51 718.889 L 216.51 709.345 Z  M 226.054 709.345 L 235.599 709.345 L 235.599 718.889 L 226.054 718.889 L 226.054 709.345 Z  M 235.599 709.345 L 245.143 709.345 L 245.143 718.889 L 235.599 718.889 L 235.599 709.345 Z  M 254.688 709.345 L 264.232 709.345 L 264.232 718.889 L 254.688 718.889 L 254.688 709.345 Z  M 273.777 709.345 L 283.321 709.345 L 283.321 718.889 L 273.777 718.889 L 273.777 709.345 Z  M 292.866 709.345 L 302.41 709.345 L 302.41 718.889 L 292.866 718.889 L 292.866 709.345 Z  M 302.41 709.345 L 311.955 709.345 L 311.955 718.889 L 302.41 718.889 L 302.41 709.345 Z  M 311.955 709.345 L 321.499 709.345 L 321.499 718.889 L 311.955 718.889 L 311.955 709.345 Z  M 331.043 709.345 L 340.588 709.345 L 340.588 718.889 L 331.043 718.889 L 331.043 709.345 Z  M 350.132 709.345 L 359.677 709.345 L 359.677 718.889 L 350.132 718.889 L 350.132 709.345 Z  M 369.221 709.345 L 378.766 709.345 L 378.766 718.889 L 369.221 718.889 L 369.221 709.345 Z  M 388.31 709.345 L 397.855 709.345 L 397.855 718.889 L 388.31 718.889 L 388.31 709.345 Z  M 397.855 709.345 L 407.399 709.345 L 407.399 718.889 L 397.855 718.889 L 397.855 709.345 Z  M 407.399 709.345 L 416.944 709.345 L 416.944 718.889 L 407.399 718.889 L 407.399 709.345 Z  M 178.332 718.889 L 187.876 718.889 L 187.876 728.434 L 178.332 728.434 L 178.332 718.889 Z  M 235.599 718.889 L 245.143 718.889 L 245.143 728.434 L 235.599 728.434 L 235.599 718.889 Z  M 264.232 718.889 L 273.777 718.889 L 273.777 728.434 L 264.232 728.434 L 264.232 718.889 Z  M 273.777 718.889 L 283.321 718.889 L 283.321 728.434 L 273.777 728.434 L 273.777 718.889 Z  M 283.321 718.889 L 292.866 718.889 L 292.866 728.434 L 283.321 728.434 L 283.321 718.889 Z  M 292.866 718.889 L 302.41 718.889 L 302.41 728.434 L 292.866 728.434 L 292.866 718.889 Z  M 331.043 718.889 L 340.588 718.889 L 340.588 728.434 L 331.043 728.434 L 331.043 718.889 Z  M 369.221 718.889 L 378.766 718.889 L 378.766 728.434 L 369.221 728.434 L 369.221 718.889 Z  M 378.766 718.889 L 388.31 718.889 L 388.31 728.434 L 378.766 728.434 L 378.766 718.889 Z  M 397.855 718.889 L 407.399 718.889 L 407.399 728.434 L 397.855 728.434 L 397.855 718.889 Z  M 407.399 718.889 L 416.944 718.889 L 416.944 728.434 L 407.399 728.434 L 407.399 718.889 Z  M 178.332 728.434 L 187.876 728.434 L 187.876 737.978 L 178.332 737.978 L 178.332 728.434 Z  M 197.421 728.434 L 206.965 728.434 L 206.965 737.978 L 197.421 737.978 L 197.421 728.434 Z  M 206.965 728.434 L 216.51 728.434 L 216.51 737.978 L 206.965 737.978 L 206.965 728.434 Z  M 216.51 728.434 L 226.054 728.434 L 226.054 737.978 L 216.51 737.978 L 216.51 728.434 Z  M 235.599 728.434 L 245.143 728.434 L 245.143 737.978 L 235.599 737.978 L 235.599 728.434 Z  M 254.688 728.434 L 264.232 728.434 L 264.232 737.978 L 254.688 737.978 L 254.688 728.434 Z  M 302.41 728.434 L 311.955 728.434 L 311.955 737.978 L 302.41 737.978 L 302.41 728.434 Z  M 321.499 728.434 L 331.043 728.434 L 331.043 737.978 L 321.499 737.978 L 321.499 728.434 Z  M 331.043 728.434 L 340.588 728.434 L 340.588 737.978 L 331.043 737.978 L 331.043 728.434 Z  M 340.588 728.434 L 350.132 728.434 L 350.132 737.978 L 340.588 737.978 L 340.588 728.434 Z  M 350.132 728.434 L 359.677 728.434 L 359.677 737.978 L 350.132 737.978 L 350.132 728.434 Z  M 359.677 728.434 L 369.221 728.434 L 369.221 737.978 L 359.677 737.978 L 359.677 728.434 Z  M 369.221 728.434 L 378.766 728.434 L 378.766 737.978 L 369.221 737.978 L 369.221 728.434 Z  M 388.31 728.434 L 397.855 728.434 L 397.855 737.978 L 388.31 737.978 L 388.31 728.434 Z  M 397.855 728.434 L 407.399 728.434 L 407.399 737.978 L 397.855 737.978 L 397.855 728.434 Z  M 178.332 737.978 L 187.876 737.978 L 187.876 747.523 L 178.332 747.523 L 178.332 737.978 Z  M 197.421 737.978 L 206.965 737.978 L 206.965 747.523 L 197.421 747.523 L 197.421 737.978 Z  M 206.965 737.978 L 216.51 737.978 L 216.51 747.523 L 206.965 747.523 L 206.965 737.978 Z  M 216.51 737.978 L 226.054 737.978 L 226.054 747.523 L 216.51 747.523 L 216.51 737.978 Z  M 235.599 737.978 L 245.143 737.978 L 245.143 747.523 L 235.599 747.523 L 235.599 737.978 Z  M 254.688 737.978 L 264.232 737.978 L 264.232 747.523 L 254.688 747.523 L 254.688 737.978 Z  M 264.232 737.978 L 273.777 737.978 L 273.777 747.523 L 264.232 747.523 L 264.232 737.978 Z  M 273.777 737.978 L 283.321 737.978 L 283.321 747.523 L 273.777 747.523 L 273.777 737.978 Z  M 283.321 737.978 L 292.866 737.978 L 292.866 747.523 L 283.321 747.523 L 283.321 737.978 Z  M 302.41 737.978 L 311.955 737.978 L 311.955 747.523 L 302.41 747.523 L 302.41 737.978 Z  M 321.499 737.978 L 331.043 737.978 L 331.043 747.523 L 321.499 747.523 L 321.499 737.978 Z  M 350.132 737.978 L 359.677 737.978 L 359.677 747.523 L 350.132 747.523 L 350.132 737.978 Z  M 369.221 737.978 L 378.766 737.978 L 378.766 747.523 L 369.221 747.523 L 369.221 737.978 Z  M 378.766 737.978 L 388.31 737.978 L 388.31 747.523 L 378.766 747.523 L 378.766 737.978 Z  M 388.31 737.978 L 397.855 737.978 L 397.855 747.523 L 388.31 747.523 L 388.31 737.978 Z  M 397.855 737.978 L 407.399 737.978 L 407.399 747.523 L 397.855 747.523 L 397.855 737.978 Z  M 407.399 737.978 L 416.944 737.978 L 416.944 747.523 L 407.399 747.523 L 407.399 737.978 Z  M 178.332 747.523 L 187.876 747.523 L 187.876 757.067 L 178.332 757.067 L 178.332 747.523 Z  M 197.421 747.523 L 206.965 747.523 L 206.965 757.067 L 197.421 757.067 L 197.421 747.523 Z  M 206.965 747.523 L 216.51 747.523 L 216.51 757.067 L 206.965 757.067 L 206.965 747.523 Z  M 216.51 747.523 L 226.054 747.523 L 226.054 757.067 L 216.51 757.067 L 216.51 747.523 Z  M 235.599 747.523 L 245.143 747.523 L 245.143 757.067 L 235.599 757.067 L 235.599 747.523 Z  M 254.688 747.523 L 264.232 747.523 L 264.232 757.067 L 254.688 757.067 L 254.688 747.523 Z  M 273.777 747.523 L 283.321 747.523 L 283.321 757.067 L 273.777 757.067 L 273.777 747.523 Z  M 302.41 747.523 L 311.955 747.523 L 311.955 757.067 L 302.41 757.067 L 302.41 747.523 Z  M 311.955 747.523 L 321.499 747.523 L 321.499 757.067 L 311.955 757.067 L 311.955 747.523 Z  M 321.499 747.523 L 331.043 747.523 L 331.043 757.067 L 321.499 757.067 L 321.499 747.523 Z  M 331.043 747.523 L 340.588 747.523 L 340.588 757.067 L 331.043 757.067 L 331.043 747.523 Z  M 378.766 747.523 L 388.31 747.523 L 388.31 757.067 L 378.766 757.067 L 378.766 747.523 Z  M 388.31 747.523 L 397.855 747.523 L 397.855 757.067 L 388.31 757.067 L 388.31 747.523 Z  M 407.399 747.523 L 416.944 747.523 L 416.944 757.067 L 407.399 757.067 L 407.399 747.523 Z  M 178.332 757.067 L 187.876 757.067 L 187.876 766.612 L 178.332 766.612 L 178.332 757.067 Z  M 235.599 757.067 L 245.143 757.067 L 245.143 766.612 L 235.599 766.612 L 235.599 757.067 Z  M 254.688 757.067 L 264.232 757.067 L 264.232 766.612 L 254.688 766.612 L 254.688 757.067 Z  M 273.777 757.067 L 283.321 757.067 L 283.321 766.612 L 273.777 766.612 L 273.777 757.067 Z  M 283.321 757.067 L 292.866 757.067 L 292.866 766.612 L 283.321 766.612 L 283.321 757.067 Z  M 321.499 757.067 L 331.043 757.067 L 331.043 766.612 L 321.499 766.612 L 321.499 757.067 Z  M 331.043 757.067 L 340.588 757.067 L 340.588 766.612 L 331.043 766.612 L 331.043 757.067 Z  M 340.588 757.067 L 350.132 757.067 L 350.132 766.612 L 340.588 766.612 L 340.588 757.067 Z  M 359.677 757.067 L 369.221 757.067 L 369.221 766.612 L 359.677 766.612 L 359.677 757.067 Z  M 369.221 757.067 L 378.766 757.067 L 378.766 766.612 L 369.221 766.612 L 369.221 757.067 Z  M 378.766 757.067 L 388.31 757.067 L 388.31 766.612 L 378.766 766.612 L 378.766 757.067 Z  M 407.399 757.067 L 416.944 757.067 L 416.944 766.612 L 407.399 766.612 L 407.399 757.067 Z  M 178.332 766.612 L 187.876 766.612 L 187.876 776.156 L 178.332 776.156 L 178.332 766.612 Z  M 187.876 766.612 L 197.421 766.612 L 197.421 776.156 L 187.876 776.156 L 187.876 766.612 Z  M 197.421 766.612 L 206.965 766.612 L 206.965 776.156 L 197.421 776.156 L 197.421 766.612 Z  M 206.965 766.612 L 216.51 766.612 L 216.51 776.156 L 206.965 776.156 L 206.965 766.612 Z  M 216.51 766.612 L 226.054 766.612 L 226.054 776.156 L 216.51 776.156 L 216.51 766.612 Z  M 226.054 766.612 L 235.599 766.612 L 235.599 776.156 L 226.054 776.156 L 226.054 766.612 Z  M 235.599 766.612 L 245.143 766.612 L 245.143 776.156 L 235.599 776.156 L 235.599 766.612 Z  M 254.688 766.612 L 264.232 766.612 L 264.232 776.156 L 254.688 776.156 L 254.688 766.612 Z  M 283.321 766.612 L 292.866 766.612 L 292.866 776.156 L 283.321 776.156 L 283.321 766.612 Z  M 292.866 766.612 L 302.41 766.612 L 302.41 776.156 L 292.866 776.156 L 292.866 766.612 Z  M 302.41 766.612 L 311.955 766.612 L 311.955 776.156 L 302.41 776.156 L 302.41 766.612 Z  M 311.955 766.612 L 321.499 766.612 L 321.499 776.156 L 311.955 776.156 L 311.955 766.612 Z  M 359.677 766.612 L 369.221 766.612 L 369.221 776.156 L 359.677 776.156 L 359.677 766.612 Z  M 369.221 766.612 L 378.766 766.612 L 378.766 776.156 L 369.221 776.156 L 369.221 766.612 Z  M 378.766 766.612 L 388.31 766.612 L 388.31 776.156 L 378.766 776.156 L 378.766 766.612 Z  M 388.31 766.612 L 397.855 766.612 L 397.855 776.156 L 388.31 776.156 L 388.31 766.612 Z  M 397.855 766.612 L 407.399 766.612 L 407.399 776.156 L 397.855 776.156 L 397.855 766.612 Z  M 407.399 766.612 L 416.944 766.612 L 416.944 776.156 L 407.399 776.156 L 407.399 766.612 Z " fill="rgb(0,0,0)"/></g></g></svg>